<svg width="79" height="200" viewBox="0 0 79 230" fill="none" xmlns="http://www.w3.org/2000/svg">
<g clip-path="url(#clip0_1_49)" filter="url(#filter0_d_1_49)">
<path d="M49.117 60.6808C64.376 54.5068 74 45.4738 74 35.4108C74 16.8038 41.093 1.71875 0.5 1.71875C-40.093 1.71875 -73 16.8038 -73 35.4108C-73 45.4738 -63.376 54.5068 -48.117 60.6808C-63.376 66.8538 -73 75.8867 -73 85.9488C-73 96.0117 -63.376 105.044 -48.117 111.218C-63.376 117.393 -73 126.425 -73 136.488C-73 146.551 -63.376 155.584 -48.117 161.757C-63.376 167.931 -73 176.964 -73 187.027C-73 205.634 -40.093 220.719 0.5 220.719C41.093 220.719 74 205.634 74 187.027C74 176.964 64.376 167.931 49.117 161.757C64.376 155.584 74 146.551 74 136.488C74 126.425 64.376 117.393 49.117 111.219C64.376 105.045 74 96.0128 74 85.9488C74 75.8867 64.376 66.8537 49.117 60.6797V60.6808Z" fill="#5551FF" stroke="black"/>
</g>
<defs>
<filter id="filter0_d_1_49" x="-78" y="0.71875" width="157" height="229" filterUnits="userSpaceOnUse" color-interpolation-filters="sRGB">
<feFlood flood-opacity="0" result="BackgroundImageFix"/>
<feColorMatrix in="SourceAlpha" type="matrix" values="0 0 0 0 0 0 0 0 0 0 0 0 0 0 0 0 0 0 127 0" result="hardAlpha"/>
<feOffset dy="4"/>
<feGaussianBlur stdDeviation="2"/>
<feComposite in2="hardAlpha" operator="out"/>
<feColorMatrix type="matrix" values="0 0 0 0 0 0 0 0 0 0 0 0 0 0 0 0 0 0 0.25 0"/>
<feBlend mode="normal" in2="BackgroundImageFix" result="effect1_dropShadow_1_49"/>
<feBlend mode="normal" in="SourceGraphic" in2="effect1_dropShadow_1_49" result="shape"/>
</filter>
<clipPath id="clip0_1_49">
<rect width="149" height="221" fill="white" transform="translate(-74 0.71875)"/>
</clipPath>
</defs>
</svg>
