<svg width="120" height="120" viewBox="0 0 150 150" fill="none" xmlns="http://www.w3.org/2000/svg">
<g clip-path="url(#clip0_1_64)">
<path d="M69.8925 100.594C76.3284 102.778 83.5729 102.643 90.2797 99.6693C104.45 93.3864 110.853 76.8123 104.581 62.6493C101.612 55.946 96.3367 50.984 90.1005 48.2831C92.2901 41.8464 92.1611 34.6031 89.1924 27.9003C82.9207 13.7368 66.3491 7.34856 52.1788 13.631C45.4721 16.6044 40.5054 21.8831 37.7989 28.1206C31.3631 25.9366 24.1189 26.072 17.4118 29.045C3.24195 35.3278 -3.16091 51.902 3.1108 66.065C6.07952 72.7683 11.3548 77.7299 17.5909 80.4307C15.4009 86.8674 15.5304 94.1111 18.4991 100.814C24.7708 114.977 41.3424 121.366 55.5127 115.083C62.2194 112.11 67.1861 106.831 69.8925 100.594Z" fill="#C7B9FF" stroke="black" stroke-width="0.857143"/>
</g>
<defs>
<clipPath id="clip0_1_64">
<rect width="120" height="120" fill="white" transform="translate(0.703125 0.5)"/>
</clipPath>
</defs>
</svg>
